<?xml version="1.0" encoding="utf-8"?>
<!-- Generator: Adobe Illustrator 16.0.0, SVG Export Plug-In . SVG Version: 6.00 Build 0)  -->
<!DOCTYPE svg PUBLIC "-//W3C//DTD SVG 1.1//EN" "http://www.w3.org/Graphics/SVG/1.1/DTD/svg11.dtd">
<svg version="1.1" id="Layer_1" xmlns="http://www.w3.org/2000/svg" xmlns:xlink="http://www.w3.org/1999/xlink" x="0px" y="0px"
	 width="187px" height="60px" viewBox="0 0 187 60" enable-background="new 0 0 187 60" xml:space="preserve">
<path fill="#404041" d="M138.82,59.469v-2.701l-1.92-3.688h1.227l1.23,2.51l1.211-2.51h1.223l-1.918,3.698v2.692L138.82,59.469
	L138.82,59.469z M132.18,59.469v-6.392h1.025l2.15,4.27v-4.27h0.982v6.392h-1.061l-2.115-4.167v4.167H132.18z M129.664,56.943
	l-0.727-2.372l-0.711,2.372H129.664z M131.6,59.469h-1.145l-0.445-1.445h-2.107l-0.434,1.445h-1.125l2.039-6.392h1.125L131.6,59.469
	z M123.588,54.158v1.821h0.588c0.393,0,0.662-0.027,0.803-0.083c0.141-0.055,0.258-0.155,0.35-0.299
	c0.09-0.147,0.135-0.323,0.135-0.533c0-0.212-0.047-0.395-0.141-0.539c-0.092-0.146-0.209-0.245-0.346-0.294
	c-0.135-0.049-0.426-0.073-0.871-0.073H123.588L123.588,54.158z M122.537,59.469v-6.392h1.699c0.635,0,1.049,0.031,1.242,0.095
	c0.313,0.097,0.568,0.308,0.771,0.632c0.201,0.32,0.305,0.736,0.305,1.244c0,0.462-0.09,0.851-0.264,1.162
	c-0.174,0.313-0.393,0.53-0.652,0.656c-0.262,0.128-0.715,0.192-1.354,0.192h-0.695v2.41H122.537z M116.42,59.469v-6.392H118
	l0.951,4.368l0.939-4.368h1.59v6.392h-0.982v-5.038l-1.043,5.039h-1.01l-1.043-5.039v5.039L116.42,59.469L116.42,59.469z
	 M111.619,56.268c0,0.734,0.141,1.284,0.416,1.65c0.279,0.367,0.627,0.552,1.041,0.552s0.76-0.183,1.031-0.546
	c0.275-0.364,0.41-0.922,0.41-1.677c0-0.737-0.131-1.287-0.398-1.639c-0.266-0.354-0.613-0.529-1.043-0.529
	c-0.432,0-0.781,0.178-1.053,0.533C111.754,54.969,111.619,55.521,111.619,56.268z M110.529,56.313c0-0.761,0.113-1.386,0.338-1.879
	s0.521-0.861,0.881-1.102c0.363-0.239,0.803-0.36,1.32-0.36c0.748,0,1.359,0.287,1.83,0.858c0.473,0.573,0.709,1.387,0.709,2.443
	c0,1.068-0.25,1.904-0.75,2.506c-0.438,0.531-1.033,0.798-1.785,0.798c-0.758,0-1.355-0.263-1.793-0.787
	C110.779,58.187,110.529,57.36,110.529,56.313z M108.809,57.111l1.025,0.394c-0.16,0.719-0.426,1.242-0.797,1.573
	c-0.373,0.332-0.826,0.497-1.371,0.497c-0.682,0-1.236-0.262-1.66-0.789c-0.488-0.606-0.732-1.428-0.732-2.458
	c0-1.089,0.246-1.941,0.736-2.557c0.43-0.533,1.002-0.801,1.723-0.801c0.586,0,1.078,0.201,1.475,0.602
	c0.281,0.286,0.488,0.71,0.619,1.272l-1.045,0.303c-0.068-0.345-0.201-0.609-0.4-0.794s-0.434-0.274-0.703-0.274
	c-0.389,0-0.703,0.167-0.947,0.503c-0.246,0.337-0.367,0.893-0.367,1.664c0,0.803,0.117,1.375,0.357,1.712
	c0.236,0.34,0.545,0.51,0.924,0.51c0.279,0,0.52-0.109,0.725-0.323C108.572,57.928,108.721,57.584,108.809,57.111z M99.189,54.158
	v4.231h0.795c0.342,0,0.584-0.031,0.74-0.096c0.152-0.063,0.277-0.16,0.375-0.29c0.098-0.129,0.178-0.334,0.242-0.613
	c0.064-0.276,0.096-0.644,0.096-1.101c0-0.474-0.031-0.847-0.098-1.12c-0.064-0.272-0.168-0.488-0.305-0.645
	c-0.139-0.156-0.309-0.259-0.504-0.308c-0.148-0.038-0.438-0.058-0.861-0.058h-0.48V54.158z M98.135,53.079h1.93
	c0.488,0,0.857,0.055,1.105,0.164c0.25,0.108,0.475,0.294,0.686,0.55c0.211,0.259,0.373,0.596,0.492,1.008
	c0.119,0.414,0.178,0.927,0.178,1.539c0,0.552-0.063,1.032-0.188,1.441c-0.125,0.407-0.281,0.73-0.475,0.968
	c-0.191,0.241-0.424,0.42-0.693,0.539c-0.273,0.12-0.623,0.181-1.051,0.181h-1.984V53.079L98.135,53.079z M93.265,59.469v-6.392
	h3.883v1.081h-2.832v1.411h2.633v1.078h-2.633v1.741h2.928v1.08H93.265z M91.194,59.469v-6.392h1.053v6.392H91.194z M86.768,59.469
	v-6.392h3.587v1.081h-2.534v1.518h2.195v1.08h-2.195v2.713H86.768z M84.689,59.469v-6.392h1.053v6.392H84.689z M81.432,59.469
	v-5.311h-1.553v-1.081h4.16v1.081h-1.553v5.311H81.432z M76.024,55.783h0.787c0.479,0,0.784-0.021,0.916-0.063
	c0.13-0.043,0.236-0.128,0.318-0.256c0.083-0.128,0.122-0.299,0.122-0.513c0-0.204-0.04-0.367-0.122-0.49
	c-0.081-0.123-0.191-0.208-0.332-0.257c-0.098-0.03-0.385-0.048-0.86-0.048h-0.828L76.024,55.783L76.024,55.783z M74.971,59.469
	v-6.392h2.227c0.569,0,0.977,0.06,1.221,0.174s0.444,0.313,0.601,0.595c0.156,0.285,0.235,0.624,0.235,1.018
	c0,0.499-0.12,0.903-0.36,1.209c-0.24,0.305-0.58,0.494-1.021,0.573c0.227,0.164,0.416,0.343,0.563,0.535
	c0.148,0.194,0.351,0.54,0.609,1.041l0.639,1.246h-1.266l-0.769-1.39c-0.275-0.503-0.462-0.819-0.563-0.944
	c-0.098-0.127-0.203-0.213-0.313-0.262c-0.111-0.048-0.287-0.071-0.53-0.071h-0.219v2.668H74.971z M70.091,59.469v-6.392h3.883
	v1.081h-2.83v1.411h2.632v1.078h-2.632v1.741h2.928v1.08H70.091z M68.156,57.111l1.026,0.394c-0.159,0.719-0.425,1.242-0.797,1.573
	c-0.373,0.332-0.829,0.497-1.371,0.497c-0.683,0-1.237-0.262-1.661-0.789c-0.487-0.606-0.731-1.428-0.731-2.458
	c0-1.089,0.245-1.941,0.736-2.557c0.428-0.533,1.002-0.801,1.723-0.801c0.587,0,1.078,0.201,1.474,0.602
	c0.281,0.286,0.488,0.71,0.619,1.272l-1.044,0.303c-0.068-0.345-0.2-0.609-0.399-0.794c-0.199-0.185-0.434-0.274-0.705-0.274
	c-0.387,0-0.702,0.167-0.946,0.503c-0.246,0.337-0.368,0.893-0.368,1.664c0,0.803,0.119,1.375,0.356,1.712
	c0.237,0.34,0.546,0.51,0.926,0.51c0.279,0,0.519-0.109,0.724-0.323C67.919,57.928,68.067,57.584,68.156,57.111z M58.499,57.827
	l1-0.135c0.027,0.279,0.111,0.5,0.258,0.661c0.145,0.16,0.305,0.241,0.479,0.241c0.207,0,0.384-0.104,0.532-0.308
	c0.147-0.203,0.222-0.517,0.222-0.938c0-0.398-0.072-0.696-0.22-0.886c-0.147-0.19-0.334-0.287-0.562-0.287
	c-0.289,0-0.547,0.154-0.776,0.463l-0.817-0.141l0.516-3.329h2.651v1.143h-1.88l-0.17,1.088c0.227-0.137,0.457-0.204,0.688-0.204
	c0.412,0,0.762,0.161,1.049,0.488c0.364,0.414,0.544,0.962,0.544,1.642c0,0.56-0.154,1.075-0.464,1.547
	c-0.308,0.47-0.749,0.705-1.323,0.705c-0.466,0-0.852-0.151-1.165-0.455C58.75,58.818,58.563,58.386,58.499,57.827z M56.982,59.469
	h-1.008v-4.614c-0.374,0.42-0.805,0.729-1.293,0.928v-1.116c0.278-0.113,0.568-0.314,0.867-0.604
	c0.301-0.29,0.507-0.624,0.625-1.002h0.812v6.409H56.982z M52.042,54.079c-0.197,0-0.354,0.13-0.472,0.39
	c-0.117,0.261-0.176,0.877-0.176,1.852c0,0.974,0.059,1.591,0.176,1.852c0.117,0.258,0.276,0.388,0.472,0.388
	c0.199,0,0.356-0.132,0.472-0.392c0.116-0.261,0.175-0.874,0.175-1.848s-0.059-1.591-0.175-1.852
	C52.398,54.209,52.241,54.079,52.042,54.079z M52.041,53.061c0.508,0,0.918,0.241,1.232,0.727c0.314,0.482,0.47,1.328,0.47,2.533
	c0,1.204-0.155,2.048-0.47,2.532c-0.313,0.484-0.723,0.725-1.228,0.725c-0.51,0-0.919-0.24-1.233-0.719s-0.469-1.329-0.469-2.549
	c0-1.199,0.155-2.04,0.469-2.522C51.126,53.302,51.534,53.061,52.041,53.061z M49.664,58.333v1.136h-3.516
	c0.037-0.432,0.152-0.837,0.344-1.226c0.194-0.389,0.568-0.895,1.125-1.524c0.44-0.502,0.709-0.84,0.813-1.018
	c0.149-0.258,0.226-0.517,0.226-0.778c0-0.279-0.062-0.488-0.185-0.631c-0.125-0.143-0.289-0.212-0.491-0.212
	c-0.442,0-0.682,0.332-0.716,0.999l-0.999-0.134c0.061-0.648,0.241-1.126,0.542-1.429c0.3-0.304,0.701-0.455,1.2-0.455
	c0.549,0,0.963,0.179,1.241,0.536c0.279,0.357,0.419,0.767,0.419,1.229c0,0.261-0.036,0.514-0.107,0.761
	c-0.07,0.246-0.18,0.491-0.327,0.74c-0.15,0.247-0.395,0.564-0.739,0.949c-0.322,0.364-0.524,0.604-0.611,0.722
	c-0.085,0.117-0.154,0.229-0.207,0.339h1.989V58.333z M44.237,59.469v-1.224h1v1.224H44.237z M44.237,56.059v-1.222h1v1.222H44.237z
	 M42.336,59.469h-1.008v-4.614c-0.374,0.42-0.804,0.729-1.293,0.928v-1.116c0.279-0.113,0.567-0.314,0.867-0.604
	c0.301-0.29,0.506-0.624,0.625-1.002h0.811L42.336,59.469L42.336,59.469z M37.396,54.079c-0.197,0-0.354,0.13-0.472,0.39
	c-0.117,0.261-0.175,0.877-0.175,1.852c0,0.974,0.059,1.591,0.175,1.852c0.117,0.258,0.276,0.388,0.472,0.388
	c0.199,0,0.356-0.132,0.472-0.392c0.116-0.261,0.174-0.874,0.174-1.848s-0.058-1.591-0.174-1.852
	C37.752,54.209,37.595,54.079,37.396,54.079z M37.394,53.061c0.508,0,0.917,0.241,1.232,0.727c0.313,0.482,0.469,1.328,0.469,2.533
	c0,1.204-0.157,2.048-0.469,2.532c-0.314,0.484-0.724,0.725-1.228,0.725c-0.508,0-0.919-0.24-1.233-0.719s-0.469-1.329-0.469-2.549
	c0-1.199,0.156-2.04,0.469-2.522C36.479,53.302,36.888,53.061,37.394,53.061z M33.326,54.079c-0.197,0-0.354,0.13-0.472,0.39
	c-0.117,0.261-0.175,0.877-0.175,1.852c0,0.974,0.058,1.591,0.175,1.852c0.117,0.258,0.276,0.388,0.472,0.388
	c0.199,0,0.357-0.132,0.473-0.392c0.116-0.261,0.174-0.874,0.174-1.848s-0.058-1.591-0.174-1.852
	C33.683,54.209,33.525,54.079,33.326,54.079z M33.324,53.061c0.508,0,0.918,0.241,1.232,0.727c0.313,0.482,0.469,1.328,0.469,2.533
	c0,1.204-0.157,2.048-0.469,2.532c-0.314,0.484-0.724,0.725-1.226,0.725c-0.509,0-0.92-0.24-1.235-0.719
	c-0.313-0.479-0.469-1.329-0.469-2.549c0-1.199,0.155-2.04,0.469-2.522C32.409,53.302,32.819,53.061,33.324,53.061z M29.85,55.315
	c0-0.396-0.075-0.703-0.229-0.916c-0.149-0.214-0.323-0.319-0.514-0.319c-0.187,0-0.341,0.087-0.464,0.263
	c-0.124,0.177-0.186,0.468-0.186,0.878c0,0.411,0.067,0.711,0.202,0.902c0.135,0.19,0.301,0.285,0.5,0.285
	c0.19,0,0.352-0.09,0.488-0.272C29.782,55.952,29.85,55.681,29.85,55.315z M27.573,57.986l0.973-0.132
	c0.046,0.475,0.235,0.714,0.567,0.714c0.223,0,0.405-0.119,0.549-0.355c0.142-0.235,0.234-0.717,0.275-1.438
	c-0.125,0.176-0.266,0.311-0.422,0.398c-0.158,0.092-0.332,0.136-0.523,0.136c-0.397,0-0.75-0.191-1.057-0.569
	c-0.306-0.38-0.459-0.884-0.459-1.514c0-0.673,0.161-1.202,0.483-1.587c0.323-0.386,0.721-0.579,1.194-0.579
	c0.529,0,0.965,0.249,1.307,0.746c0.343,0.499,0.515,1.321,0.515,2.472c0,1.172-0.177,2.014-0.536,2.525
	c-0.357,0.515-0.821,0.772-1.391,0.772c-0.396,0-0.722-0.129-0.979-0.39C27.812,58.928,27.646,58.526,27.573,57.986z M20.923,56.268
	c0,0.734,0.141,1.284,0.418,1.65c0.28,0.367,0.625,0.552,1.038,0.552c0.417,0,0.762-0.183,1.034-0.546
	c0.273-0.364,0.41-0.922,0.41-1.677c0-0.737-0.133-1.287-0.398-1.639c-0.267-0.354-0.614-0.529-1.046-0.529
	c-0.43,0-0.779,0.178-1.05,0.533C21.058,54.969,20.923,55.521,20.923,56.268z M19.835,56.313c0-0.761,0.113-1.386,0.337-1.879
	c0.225-0.493,0.519-0.861,0.882-1.102c0.363-0.239,0.803-0.36,1.319-0.36c0.75,0,1.359,0.287,1.831,0.858
	c0.472,0.573,0.708,1.387,0.708,2.443c0,1.068-0.25,1.904-0.75,2.506c-0.438,0.531-1.035,0.798-1.785,0.798
	c-0.758,0-1.357-0.263-1.794-0.787C20.085,58.187,19.835,57.36,19.835,56.313z M14.901,57.389l1.026-0.123
	c0.116,0.815,0.499,1.223,1.146,1.223c0.322,0,0.573-0.083,0.757-0.252c0.184-0.164,0.275-0.371,0.275-0.619
	c0-0.146-0.033-0.266-0.096-0.369c-0.064-0.104-0.163-0.187-0.294-0.252c-0.13-0.066-0.449-0.175-0.952-0.328
	c-0.45-0.137-0.781-0.284-0.99-0.444c-0.209-0.16-0.375-0.371-0.499-0.63c-0.123-0.26-0.187-0.539-0.187-0.839
	c0-0.348,0.079-0.661,0.239-0.939c0.159-0.278,0.378-0.489,0.657-0.633c0.28-0.141,0.624-0.212,1.035-0.212
	c0.618,0,1.1,0.166,1.446,0.501c0.347,0.335,0.53,0.813,0.55,1.434l-1.062,0.055c-0.046-0.341-0.146-0.581-0.302-0.714
	c-0.155-0.137-0.375-0.205-0.661-0.205c-0.286,0-0.507,0.059-0.661,0.178c-0.155,0.117-0.231,0.263-0.231,0.438
	c0,0.172,0.07,0.317,0.211,0.434c0.142,0.117,0.464,0.251,0.966,0.396c0.533,0.157,0.916,0.318,1.152,0.489s0.418,0.39,0.542,0.658
	c0.125,0.269,0.188,0.594,0.188,0.978c0,0.554-0.169,1.021-0.512,1.397c-0.342,0.378-0.876,0.567-1.602,0.567
	C15.76,59.576,15.046,58.848,14.901,57.389z M13.098,59.469v-6.392h1.053v6.392H13.098z M5.835,59.469v-6.392h1.024l2.153,4.27
	v-4.27h0.982v6.392h-1.06l-2.116-4.167v4.167H5.835z M3.319,56.943l-0.727-2.372l-0.711,2.372H3.319z M5.256,59.469H4.111
	l-0.448-1.445H1.557l-0.433,1.445H0l2.037-6.392h1.127L5.256,59.469z"/>
<polygon fill="#0068A0" points="178.309,21.29 153.518,28.756 153.518,14.565 178.309,7.098 "/>
<polygon fill="#A71C20" points="178.309,33.014 153.518,40.479 153.518,33.158 178.309,25.692 "/>
<path fill="#0068A0" d="M4.261,35.708l2.048-3.841h11.16l2.115,3.841h4.596L14.087,18.106h-3.945L0.181,35.708H4.261z
	 M11.973,21.515l3.798,7.151H8.06L11.973,21.515z"/>
<path fill="#0068A0" d="M40.158,35.708c1.78,0,3.238-0.11,4.378-0.324c1.14-0.217,2.094-0.565,2.86-1.043
	c1.234-0.754,2.19-1.789,2.869-3.105c0.679-1.315,1.019-2.794,1.019-4.438c0-2.775-0.87-4.918-2.611-6.427
	c-1.739-1.51-4.228-2.265-7.461-2.265H29.877v17.602H40.158z M33.968,21.271h7.276c1.914,0,3.361,0.464,4.34,1.388
	c0.979,0.928,1.468,2.288,1.468,4.084c0,2.02-0.589,3.466-1.77,4.342C44.104,31.962,42.1,32.4,39.275,32.4h-5.307V21.271z"/>
<path fill="#0068A0" d="M62.813,35.708v-6.65h3.89l7.11,6.65h5.893l-8.136-6.65h2.305c1.4,0,2.411-0.272,3.039-0.817
	c0.628-0.546,0.94-1.413,0.94-2.603V21.53c0-1.202-0.313-2.072-0.94-2.612c-0.628-0.541-1.64-0.811-3.039-0.811h-15.08v17.601
	H62.813z M73.515,21.471c0.262,0.205,0.394,0.56,0.394,1.068v2.105c0,0.52-0.132,0.882-0.394,1.086
	c-0.261,0.205-0.75,0.306-1.461,0.306h-9.24v-4.872h9.24C72.766,21.164,73.254,21.267,73.515,21.471z"/>
<rect x="116.133" y="18.107" fill="#0068A0" width="4.09" height="17.602"/>
<polygon fill="#0068A0" points="137.412,21.271 137.412,35.708 133.324,35.708 133.324,21.271 125.254,21.271 125.254,18.107 
	145.52,18.107 145.52,21.271 "/>
<polygon fill="#0068A0" points="89.863,27.572 85.773,29.219 85.773,30.616 89.863,28.967 "/>
<path fill="#0068A0" d="M85.795,31.971c0.019,0.505,0.07,0.955,0.155,1.344l3.913-1.576v-1.405L85.795,31.971z"/>
<polygon fill="#0068A0" points="107.463,23.241 103.375,24.889 103.375,26.294 107.463,24.647 "/>
<path fill="#0068A0" d="M89.863,26.206v-4.935h12.25l4.723-1.903c-0.086-0.134-0.168-0.273-0.271-0.375
	c-0.602-0.589-1.76-0.886-3.473-0.886H90.13c-1.707,0-2.86,0.296-3.458,0.886c-0.6,0.591-0.898,1.689-0.898,3.293v5.569
	L89.863,26.206z"/>
<path fill="#0068A0" d="M103.375,23.523l4.068-1.639c-0.018-0.5-0.066-0.945-0.152-1.335l-3.916,1.578V23.523z"/>
<path fill="#0068A0" d="M103.375,27.659V32.4H91.608l-5.189,2.09c0.081,0.121,0.156,0.251,0.253,0.345
	c0.599,0.583,1.752,0.872,3.458,0.872h12.962c1.713,0,2.871-0.292,3.473-0.872c0.598-0.583,0.9-1.677,0.9-3.284v-5.54
	L103.375,27.659z"/>
<rect x="0.101" y="38.452" fill="#A71C20" width="145.266" height="0.834"/>
<path d="M141.152,45.705v-0.682h0.561v0.681L141.152,45.705L141.152,45.705z M137.807,45.705v-0.682h0.561v0.681L137.807,45.705
	L137.807,45.705z M134.461,45.705v-0.682h0.561v0.681L134.461,45.705L134.461,45.705z M130.959,45.705v-3.541h0.443v0.543
	c0.115-0.251,0.219-0.413,0.313-0.497c0.094-0.079,0.199-0.121,0.316-0.121c0.164,0,0.334,0.066,0.504,0.191l-0.164,0.56
	c-0.123-0.086-0.24-0.129-0.357-0.129c-0.104,0-0.199,0.036-0.287,0.11c-0.086,0.074-0.148,0.176-0.184,0.307
	c-0.063,0.228-0.094,0.47-0.094,0.729v1.85L130.959,45.705L130.959,45.705z M126.422,43.597h1.621
	c-0.023-0.308-0.088-0.535-0.195-0.686c-0.16-0.22-0.361-0.329-0.605-0.329c-0.219,0-0.408,0.09-0.564,0.274
	C126.523,43.039,126.439,43.285,126.422,43.597z M128.043,44.572l0.506,0.075c-0.084,0.376-0.238,0.661-0.457,0.853
	c-0.225,0.192-0.498,0.288-0.824,0.288c-0.412,0-0.744-0.156-0.998-0.469c-0.258-0.312-0.383-0.765-0.383-1.353
	c0-0.609,0.127-1.074,0.387-1.396c0.258-0.32,0.58-0.482,0.977-0.482c0.373,0,0.688,0.159,0.939,0.473
	c0.248,0.314,0.377,0.772,0.377,1.368l-0.006,0.16h-2.168c0.02,0.398,0.111,0.701,0.277,0.904c0.164,0.203,0.363,0.305,0.6,0.305
	C127.643,45.296,127.898,45.056,128.043,44.572z M123.811,45.166l0.068,0.533c-0.135,0.036-0.258,0.055-0.367,0.055
	c-0.172,0-0.309-0.034-0.414-0.103s-0.178-0.16-0.215-0.279c-0.039-0.116-0.059-0.352-0.059-0.704v-2.04h-0.363v-0.466h0.363V41.29
	l0.49-0.361v1.235h0.498v0.464h-0.498v2.075c0,0.192,0.014,0.315,0.043,0.37c0.041,0.082,0.121,0.121,0.238,0.121
	C123.65,45.194,123.723,45.185,123.811,45.166z M120.465,45.166l0.068,0.533c-0.135,0.036-0.258,0.055-0.367,0.055
	c-0.172,0-0.309-0.034-0.416-0.103c-0.104-0.068-0.176-0.16-0.213-0.279c-0.041-0.116-0.061-0.352-0.061-0.704v-2.04h-0.361v-0.466
	h0.361V41.29l0.492-0.361v1.235h0.498v0.464h-0.498v2.075c0,0.192,0.016,0.315,0.043,0.37c0.043,0.082,0.121,0.121,0.238,0.121
	C120.303,45.194,120.377,45.185,120.465,45.166z M114.828,43.597h1.623c-0.023-0.308-0.088-0.535-0.197-0.686
	c-0.158-0.22-0.359-0.329-0.604-0.329c-0.221,0-0.41,0.09-0.564,0.274C114.93,43.039,114.846,43.285,114.828,43.597z
	 M116.451,44.572l0.506,0.075c-0.084,0.376-0.238,0.661-0.461,0.853c-0.219,0.192-0.494,0.288-0.82,0.288
	c-0.412,0-0.744-0.156-0.998-0.469c-0.256-0.312-0.383-0.765-0.383-1.353c0-0.609,0.129-1.074,0.385-1.396
	c0.258-0.32,0.582-0.482,0.977-0.482c0.375,0,0.688,0.159,0.941,0.473c0.25,0.314,0.377,0.772,0.377,1.368l-0.004,0.16h-2.172
	c0.021,0.398,0.113,0.701,0.279,0.904c0.164,0.203,0.363,0.305,0.6,0.305C116.049,45.296,116.309,45.056,116.451,44.572z
	 M110.014,43.912c0,0.366,0.033,0.641,0.102,0.823c0.064,0.183,0.158,0.323,0.281,0.417c0.123,0.095,0.258,0.144,0.406,0.144
	c0.203,0,0.383-0.114,0.539-0.343c0.158-0.227,0.234-0.569,0.234-1.022c0-0.466-0.074-0.808-0.227-1.023
	c-0.148-0.219-0.336-0.328-0.555-0.328c-0.203,0-0.383,0.114-0.543,0.343C110.094,43.148,110.014,43.48,110.014,43.912z
	 M110.02,45.705h-0.455v-4.886h0.492v1.743c0.104-0.158,0.221-0.277,0.354-0.354c0.131-0.078,0.281-0.119,0.443-0.119
	c0.227,0,0.432,0.07,0.617,0.205c0.186,0.136,0.334,0.341,0.445,0.617c0.111,0.274,0.166,0.608,0.166,1.003
	c0,0.601-0.125,1.061-0.375,1.388c-0.252,0.325-0.545,0.488-0.879,0.488c-0.172,0-0.322-0.044-0.457-0.131
	c-0.133-0.087-0.252-0.219-0.35-0.39v0.436H110.02z M101.682,43.597h1.621c-0.023-0.308-0.088-0.535-0.197-0.686
	c-0.158-0.22-0.359-0.329-0.604-0.329c-0.221,0-0.408,0.09-0.566,0.274C101.783,43.039,101.697,43.285,101.682,43.597z
	 M103.303,44.572l0.506,0.075c-0.086,0.376-0.24,0.661-0.459,0.853c-0.223,0.192-0.494,0.288-0.822,0.288
	c-0.414,0-0.742-0.156-1-0.469c-0.254-0.312-0.381-0.765-0.381-1.353c0-0.609,0.129-1.074,0.385-1.396
	c0.258-0.32,0.582-0.482,0.975-0.482c0.377,0,0.689,0.159,0.941,0.473c0.252,0.314,0.377,0.772,0.377,1.368l-0.004,0.16h-2.17
	c0.021,0.398,0.113,0.701,0.277,0.904s0.365,0.305,0.602,0.305C102.9,45.296,103.158,45.056,103.303,44.572z M99.068,45.166
	l0.068,0.533c-0.135,0.036-0.258,0.055-0.369,0.055c-0.17,0-0.309-0.034-0.414-0.103s-0.176-0.16-0.213-0.279
	c-0.041-0.116-0.061-0.352-0.061-0.704v-2.04h-0.359v-0.466h0.359V41.29l0.492-0.361v1.235h0.496v0.464h-0.496v2.075
	c0,0.192,0.016,0.315,0.043,0.37c0.043,0.082,0.121,0.121,0.238,0.121C98.908,45.194,98.98,45.185,99.068,45.166z M94.922,43.933
	c-0.18,0.087-0.447,0.164-0.805,0.225c-0.207,0.034-0.351,0.076-0.433,0.121c-0.083,0.046-0.146,0.11-0.19,0.193
	c-0.047,0.081-0.07,0.18-0.07,0.289c0,0.168,0.053,0.304,0.155,0.405c0.107,0.101,0.252,0.15,0.435,0.15
	c0.176,0,0.336-0.044,0.479-0.137c0.145-0.091,0.254-0.212,0.322-0.364c0.072-0.15,0.107-0.374,0.107-0.665V43.933L94.922,43.933z
	 M94.959,45.271c-0.164,0.171-0.336,0.299-0.512,0.386c-0.178,0.087-0.363,0.131-0.555,0.131c-0.302,0-0.542-0.092-0.723-0.273
	c-0.182-0.184-0.271-0.429-0.271-0.737c0-0.206,0.043-0.386,0.127-0.543c0.084-0.158,0.201-0.282,0.348-0.372
	c0.147-0.088,0.37-0.155,0.668-0.197c0.398-0.058,0.695-0.123,0.881-0.204l0.004-0.155c0-0.243-0.043-0.412-0.129-0.512
	c-0.121-0.144-0.309-0.212-0.563-0.212c-0.229,0-0.399,0.046-0.512,0.141c-0.114,0.094-0.196,0.274-0.25,0.533l-0.493-0.088
	c0.071-0.377,0.211-0.649,0.42-0.821c0.211-0.171,0.512-0.258,0.904-0.258c0.305,0,0.545,0.058,0.719,0.172
	c0.172,0.114,0.283,0.256,0.328,0.425s0.068,0.415,0.068,0.737v0.803c0,0.558,0.012,0.912,0.031,1.057
	c0.021,0.143,0.064,0.286,0.127,0.423h-0.514C95.01,45.583,94.975,45.438,94.959,45.271z M90.377,44.417l0.492,0.073
	c-0.056,0.421-0.195,0.742-0.418,0.965c-0.224,0.221-0.493,0.332-0.805,0.332c-0.381,0-0.694-0.157-0.939-0.469
	c-0.245-0.311-0.368-0.774-0.368-1.386c0-0.612,0.124-1.076,0.373-1.383c0.249-0.307,0.567-0.462,0.957-0.462
	c0.301,0,0.554,0.094,0.76,0.28c0.206,0.188,0.337,0.467,0.396,0.84l-0.478,0.089c-0.047-0.24-0.127-0.42-0.243-0.537
	c-0.117-0.12-0.255-0.181-0.417-0.181c-0.244,0-0.442,0.109-0.602,0.323c-0.159,0.213-0.239,0.555-0.239,1.021
	c0,0.485,0.077,0.834,0.228,1.05c0.15,0.215,0.345,0.323,0.582,0.323c0.186,0,0.344-0.072,0.477-0.214
	C90.258,44.938,90.343,44.718,90.377,44.417z M85.447,45.705v-3.541h0.492v3.541H85.447z M85.447,41.507v-0.688h0.492v0.688H85.447z
	 M80.546,45.705v-3.541h0.443v0.508c0.108-0.195,0.237-0.342,0.391-0.438c0.155-0.097,0.331-0.146,0.53-0.146
	c0.156,0,0.299,0.03,0.431,0.094c0.131,0.06,0.237,0.14,0.318,0.238c0.082,0.099,0.141,0.228,0.182,0.386
	c0.04,0.158,0.061,0.398,0.061,0.727v2.174h-0.492v-2.151c0-0.259-0.021-0.45-0.066-0.57c-0.044-0.117-0.113-0.212-0.208-0.278
	c-0.094-0.064-0.203-0.098-0.329-0.098c-0.234,0-0.421,0.089-0.56,0.261c-0.141,0.176-0.209,0.479-0.209,0.905v1.932L80.546,45.705
	L80.546,45.705z M77.542,45.705v-0.52c-0.113,0.2-0.247,0.352-0.398,0.45c-0.153,0.103-0.326,0.152-0.52,0.152
	c-0.229,0-0.423-0.062-0.586-0.186c-0.162-0.122-0.27-0.28-0.324-0.469c-0.054-0.188-0.082-0.447-0.082-0.774v-2.195h0.492v1.965
	c0,0.364,0.018,0.608,0.054,0.732c0.037,0.122,0.104,0.221,0.202,0.296c0.099,0.074,0.211,0.113,0.338,0.113
	c0.234,0,0.426-0.097,0.578-0.291c0.128-0.166,0.191-0.473,0.191-0.918v-1.897h0.492v3.541H77.542z M69.192,45.705v-3.541h0.444
	v0.501c0.098-0.185,0.222-0.327,0.375-0.427c0.153-0.1,0.319-0.15,0.501-0.15c0.205,0,0.376,0.053,0.515,0.159
	c0.141,0.104,0.24,0.259,0.301,0.46c0.116-0.206,0.248-0.358,0.399-0.462c0.149-0.105,0.316-0.157,0.497-0.157
	c0.279,0,0.499,0.095,0.658,0.284c0.16,0.188,0.241,0.491,0.241,0.906v2.427h-0.492v-2.229c0-0.252-0.019-0.431-0.055-0.537
	c-0.037-0.104-0.097-0.187-0.179-0.245s-0.174-0.087-0.277-0.087c-0.211,0-0.384,0.085-0.518,0.252
	c-0.134,0.168-0.2,0.431-0.2,0.793v2.054h-0.492v-2.297c0-0.295-0.045-0.499-0.135-0.621c-0.09-0.117-0.214-0.181-0.37-0.181
	c-0.223,0-0.399,0.092-0.529,0.272c-0.131,0.182-0.194,0.512-0.194,0.991v1.835H69.192z M62.741,45.705v-3.541h0.444v0.501
	c0.098-0.185,0.222-0.327,0.375-0.427c0.153-0.1,0.32-0.15,0.501-0.15c0.204,0,0.376,0.053,0.516,0.159
	c0.141,0.104,0.239,0.259,0.3,0.46c0.117-0.206,0.25-0.358,0.4-0.462c0.149-0.105,0.316-0.157,0.499-0.157
	c0.279,0,0.497,0.095,0.658,0.284c0.161,0.188,0.24,0.491,0.24,0.906v2.427H66.18v-2.229c0-0.252-0.018-0.431-0.055-0.537
	c-0.038-0.104-0.097-0.187-0.178-0.245c-0.083-0.059-0.175-0.087-0.278-0.087c-0.212,0-0.382,0.085-0.518,0.252
	c-0.132,0.168-0.2,0.431-0.2,0.793v2.054H64.46v-2.297c0-0.295-0.045-0.499-0.134-0.621c-0.09-0.117-0.214-0.181-0.371-0.181
	c-0.224,0-0.399,0.092-0.528,0.272c-0.131,0.182-0.195,0.512-0.195,0.991v1.835H62.741z M58.16,43.938c0,0.458,0.083,0.8,0.25,1.024
	c0.166,0.223,0.371,0.334,0.617,0.334c0.23,0,0.427-0.112,0.593-0.339c0.165-0.227,0.247-0.565,0.247-1.02
	c0-0.456-0.083-0.798-0.249-1.021c-0.165-0.224-0.373-0.334-0.617-0.334c-0.232,0-0.429,0.111-0.594,0.337
	C58.243,43.142,58.16,43.482,58.16,43.938z M57.655,43.939c0-0.61,0.128-1.072,0.385-1.383c0.255-0.31,0.582-0.468,0.973-0.468
	c0.387,0,0.709,0.158,0.969,0.468c0.26,0.311,0.389,0.76,0.389,1.347c0,0.633-0.127,1.106-0.383,1.419
	c-0.256,0.31-0.581,0.467-0.976,0.467c-0.387,0-0.711-0.157-0.97-0.469C57.785,45.008,57.655,44.549,57.655,43.939z M55.148,44.417
	l0.491,0.073c-0.055,0.421-0.195,0.742-0.418,0.965c-0.225,0.221-0.493,0.332-0.806,0.332c-0.38,0-0.692-0.157-0.938-0.469
	c-0.246-0.311-0.369-0.774-0.369-1.386c0-0.612,0.124-1.076,0.371-1.383c0.25-0.307,0.569-0.462,0.958-0.462
	c0.302,0,0.554,0.094,0.76,0.28c0.206,0.188,0.337,0.467,0.396,0.84l-0.479,0.089c-0.047-0.24-0.127-0.42-0.243-0.537
	c-0.117-0.12-0.255-0.181-0.418-0.181c-0.243,0-0.442,0.109-0.601,0.323c-0.159,0.213-0.239,0.555-0.239,1.021
	c0,0.485,0.077,0.834,0.228,1.05c0.152,0.215,0.345,0.323,0.582,0.323c0.187,0,0.345-0.072,0.476-0.214
	C55.029,44.938,55.113,44.718,55.148,44.417z M46.901,45.705v-0.52c-0.113,0.2-0.248,0.352-0.399,0.45
	c-0.153,0.103-0.326,0.152-0.519,0.152c-0.229,0-0.423-0.062-0.586-0.186c-0.162-0.122-0.27-0.28-0.324-0.469
	c-0.054-0.188-0.082-0.447-0.082-0.774v-2.195h0.492v1.965c0,0.364,0.018,0.608,0.054,0.732c0.036,0.122,0.105,0.221,0.203,0.296
	c0.099,0.074,0.211,0.113,0.337,0.113c0.234,0,0.427-0.097,0.579-0.291c0.128-0.166,0.192-0.473,0.192-0.918v-1.897h0.492v3.541
	H46.901z M40.422,43.938c0,0.458,0.083,0.8,0.249,1.024c0.165,0.223,0.373,0.334,0.617,0.334c0.23,0,0.427-0.112,0.592-0.339
	c0.165-0.227,0.247-0.565,0.247-1.02c0-0.456-0.083-0.798-0.249-1.021c-0.166-0.224-0.372-0.334-0.618-0.334
	c-0.232,0-0.43,0.111-0.593,0.337C40.505,43.142,40.422,43.482,40.422,43.938z M39.917,43.939c0-0.61,0.128-1.072,0.385-1.383
	c0.256-0.31,0.582-0.468,0.973-0.468c0.387,0,0.709,0.158,0.97,0.468c0.259,0.311,0.39,0.76,0.39,1.347
	c0,0.633-0.127,1.106-0.384,1.419c-0.256,0.31-0.581,0.467-0.976,0.467c-0.387,0-0.712-0.157-0.97-0.469
	C40.048,45.008,39.917,44.549,39.917,43.939z M35.5,47.063l-0.055-0.56c0.108,0.036,0.202,0.056,0.279,0.056
	c0.104,0,0.189-0.021,0.258-0.064c0.067-0.042,0.123-0.107,0.167-0.197c0.017-0.031,0.08-0.232,0.192-0.605l-1.094-3.53h0.53
	L36.38,44.2c0.076,0.254,0.144,0.524,0.208,0.812c0.055-0.27,0.123-0.538,0.2-0.798l0.621-2.05h0.494l-1.104,3.604
	c-0.145,0.464-0.259,0.774-0.341,0.933c-0.083,0.156-0.178,0.268-0.284,0.336c-0.105,0.07-0.225,0.104-0.357,0.104
	C35.723,47.138,35.617,47.114,35.5,47.063z M27.717,43.961c0,0.456,0.077,0.794,0.229,1.01c0.152,0.217,0.336,0.325,0.553,0.325
	c0.207,0,0.389-0.113,0.544-0.338c0.157-0.223,0.235-0.57,0.235-1.039c0-0.464-0.077-0.805-0.229-1.026
	c-0.152-0.223-0.336-0.334-0.555-0.334c-0.196,0-0.375,0.12-0.537,0.357C27.799,43.156,27.717,43.504,27.717,43.961z M27.267,47.063
	v-4.899h0.458v0.466c0.11-0.191,0.233-0.33,0.369-0.412c0.135-0.086,0.29-0.129,0.463-0.129c0.23,0,0.435,0.07,0.618,0.205
	c0.185,0.136,0.332,0.341,0.443,0.617c0.112,0.277,0.168,0.611,0.168,0.999c0,0.604-0.126,1.064-0.378,1.392
	c-0.251,0.325-0.545,0.488-0.886,0.488c-0.151,0-0.292-0.038-0.422-0.116c-0.132-0.077-0.244-0.189-0.34-0.33v1.721L27.267,47.063
	L27.267,47.063z M24.22,45.705v-4.886h0.492v4.886H24.22z M19.695,43.597h1.621c-0.022-0.308-0.086-0.535-0.196-0.686
	c-0.159-0.22-0.359-0.329-0.604-0.329c-0.22,0-0.408,0.09-0.564,0.274C19.796,43.039,19.712,43.285,19.695,43.597z M21.318,44.572
	l0.505,0.075c-0.085,0.376-0.237,0.661-0.459,0.853c-0.221,0.192-0.495,0.288-0.821,0.288c-0.412,0-0.745-0.156-1-0.469
	c-0.255-0.312-0.382-0.765-0.382-1.353c0-0.609,0.129-1.074,0.386-1.396c0.257-0.32,0.582-0.482,0.975-0.482
	c0.376,0,0.69,0.159,0.941,0.473c0.251,0.314,0.375,0.772,0.375,1.368l-0.002,0.16h-2.17c0.021,0.398,0.113,0.701,0.277,0.904
	c0.165,0.203,0.366,0.305,0.602,0.305C20.915,45.296,21.174,45.056,21.318,44.572z M14.43,45.705v-4.886h0.492v1.758
	c0.115-0.162,0.246-0.283,0.392-0.367c0.144-0.079,0.305-0.121,0.48-0.121c0.309,0,0.552,0.1,0.731,0.295
	c0.179,0.198,0.267,0.559,0.267,1.081v2.241H16.3v-2.239c0-0.305-0.054-0.524-0.164-0.656c-0.109-0.135-0.257-0.202-0.448-0.202
	c-0.212,0-0.394,0.085-0.543,0.257c-0.15,0.17-0.226,0.475-0.226,0.909v1.934h-0.49V45.705z M6.547,43.597h1.623
	c-0.022-0.308-0.087-0.535-0.197-0.686c-0.158-0.22-0.359-0.329-0.604-0.329c-0.22,0-0.408,0.09-0.563,0.274
	C6.649,43.039,6.563,43.285,6.547,43.597z M8.169,44.572l0.505,0.075C8.59,45.023,8.438,45.309,8.215,45.5
	c-0.221,0.192-0.495,0.288-0.821,0.288c-0.412,0-0.745-0.156-0.999-0.469c-0.255-0.312-0.383-0.765-0.383-1.353
	c0-0.609,0.129-1.074,0.386-1.396c0.257-0.32,0.581-0.482,0.976-0.482c0.375,0,0.688,0.159,0.941,0.473
	c0.25,0.314,0.376,0.772,0.376,1.368l-0.004,0.16h-2.17c0.021,0.398,0.113,0.701,0.277,0.904c0.165,0.203,0.366,0.305,0.602,0.305
	C7.767,45.296,8.024,45.056,8.169,44.572z M0.896,45.705l-0.895-3.541h0.506l0.466,2.044l0.171,0.763l0.15-0.731l0.456-2.075h0.52
	l0.432,2.053l0.147,0.678l0.167-0.683l0.497-2.048h0.48L3.09,45.706H2.574l-0.468-2.119l-0.11-0.604l-0.584,2.723L0.896,45.705
	L0.896,45.705z"/>
<path d="M182.139,4.404V0.551h0.768l0.912,2.727c0.082,0.254,0.145,0.444,0.182,0.571c0.045-0.141,0.115-0.347,0.207-0.619
	l0.928-2.679h0.682v3.852h-0.49V1.181l-1.125,3.223h-0.459l-1.111-3.282v3.282H182.139z M179.844,4.404V1.003h-1.27V0.551h3.051
	v0.452h-1.27v3.4L179.844,4.404L179.844,4.404z"/>
</svg>
